<mxfile host="app.diagrams.net" agent="Mozilla/5.0 (Windows NT 10.0; Win64; x64) AppleWebKit/537.36 (KHTML, like Gecko) Chrome/136.0.0.0 Safari/537.36" version="27.0.6">
  <diagram name="Page-1" id="UECpNyloiZMzTwFvvpmX">
    <mxGraphModel dx="1186" dy="721" grid="1" gridSize="10" guides="1" tooltips="1" connect="1" arrows="1" fold="1" page="1" pageScale="1" pageWidth="827" pageHeight="1169" math="0" shadow="0">
      <root>
        <mxCell id="0" />
        <mxCell id="1" parent="0" />
        <mxCell id="o01rYZssK_lU-B5gjtOP-1" value="" style="rounded=0;whiteSpace=wrap;html=1;strokeColor=#FFFFFF;" vertex="1" parent="1">
          <mxGeometry x="135" y="260" width="540" height="550" as="geometry" />
        </mxCell>
        <mxCell id="o01rYZssK_lU-B5gjtOP-2" value="" style="endArrow=classic;html=1;rounded=0;exitX=0.5;exitY=1;exitDx=0;exitDy=0;entryX=0.5;entryY=0;entryDx=0;entryDy=0;strokeColor=#333333;" edge="1" parent="1" source="o01rYZssK_lU-B5gjtOP-8" target="o01rYZssK_lU-B5gjtOP-3">
          <mxGeometry width="50" height="50" relative="1" as="geometry">
            <mxPoint x="390" y="610" as="sourcePoint" />
            <mxPoint x="440" y="560" as="targetPoint" />
          </mxGeometry>
        </mxCell>
        <mxCell id="o01rYZssK_lU-B5gjtOP-3" value="&lt;font style=&quot;font-size: 16px;&quot;&gt;&lt;b&gt;Modular&lt;br&gt;Monolith&lt;/b&gt;&lt;/font&gt;" style="rounded=1;arcSize=10;whiteSpace=wrap;html=1;align=center;fillColor=#1ba1e2;fontColor=#ffffff;strokeColor=#006EAF;" vertex="1" parent="1">
          <mxGeometry x="337" y="700" width="136" height="90" as="geometry" />
        </mxCell>
        <mxCell id="o01rYZssK_lU-B5gjtOP-4" value="&lt;strong data-end=&quot;75&quot; data-start=&quot;55&quot;&gt;Map the monolith&lt;/strong&gt;: Identify functional domains" style="rounded=0;arcSize=10;whiteSpace=wrap;html=1;align=center;strokeColor=#333333;" vertex="1" parent="1">
          <mxGeometry x="190" y="410" width="430" height="40" as="geometry" />
        </mxCell>
        <mxCell id="o01rYZssK_lU-B5gjtOP-5" value="&lt;strong data-end=&quot;207&quot; data-start=&quot;185&quot;&gt;Define the modules&lt;/strong&gt;: Group code by business domain" style="rounded=0;arcSize=10;whiteSpace=wrap;html=1;align=center;strokeColor=#333333;" vertex="1" parent="1">
          <mxGeometry x="190" y="470" width="430" height="40" as="geometry" />
        </mxCell>
        <mxCell id="o01rYZssK_lU-B5gjtOP-6" value="&lt;strong data-end=&quot;343&quot; data-start=&quot;319&quot;&gt;Isolate dependencies and&amp;nbsp;Implement module communication&lt;/strong&gt;: Eliminate direct data access between modules and use events or dependency injections" style="rounded=0;arcSize=10;whiteSpace=wrap;html=1;align=center;strokeColor=#333333;" vertex="1" parent="1">
          <mxGeometry x="190" y="530" width="430" height="60" as="geometry" />
        </mxCell>
        <mxCell id="o01rYZssK_lU-B5gjtOP-7" value="&lt;strong data-end=&quot;451&quot; data-start=&quot;428&quot;&gt;Encapsulate modules&lt;/strong&gt;: Each module should expose a clear public interface (internal API) and hide implementation details" style="rounded=0;arcSize=10;whiteSpace=wrap;html=1;align=center;strokeColor=#333333;" vertex="1" parent="1">
          <mxGeometry x="190" y="610" width="430" height="60" as="geometry" />
        </mxCell>
        <mxCell id="o01rYZssK_lU-B5gjtOP-8" value="&lt;font style=&quot;font-size: 16px; color: rgb(255, 255, 255);&quot;&gt;&lt;b&gt;Monolith&lt;/b&gt;&lt;/font&gt;" style="rounded=1;arcSize=10;whiteSpace=wrap;html=1;align=center;fillColor=#fa6800;fontColor=#000000;strokeColor=#C73500;" vertex="1" parent="1">
          <mxGeometry x="337" y="290" width="136" height="90" as="geometry" />
        </mxCell>
      </root>
    </mxGraphModel>
  </diagram>
</mxfile>
